A group of bank robbers find their multi-million dollar plan interrupted by a hard-boiled detective...
 
http://www.imdb.com/title/tt1135084/

Subs: Dutch, English (srt).

'Takers' gaat over een groep bankrovers, die de ene na de andere slag slaan en steeds maar weer wegkomen met de buit. Het lijkt erop dat de mannen niet gepakt kunnen worden, totdat ze van plan zijn om hun ''allerlaatste'' slag te slaan. Det. Jack Wells (Matt Dillon) zal namelijk alles in het werk stellen om ze allemaal voor eens en altijd achter slot en grendel te krijgen.
 
http://www.moviemeter.nl/film/60050

Ondertitels: Engels, Nederlands (srt).

General
Complete name                    : Takers-AC3-BRRip 2010 TBS\Takers-AC3-BRRip 2010.avi
Format                           : AVI
Format/Info                      : Audio Video Interleave
File size                        : 1.46 GiB
Duration                         : 1h 47mn
Overall bit rate                 : 1 953 Kbps
Writing application              : VirtualDubMod 1.5.4.1 (build 2178/release)
Writing library                  : VirtualDubMod build 2178/release
Source                           : Takers.2010.720p.BluRay.x264-METiS

Video
ID                               : 0
Format                           : MPEG-4 Visual
Format profile                   : Simple@L3
Format settings, BVOP            : No
Format settings, QPel            : No
Format settings, GMC             : No warppoints
Format settings, Matrix          : Default (H.263)
Codec ID                         : XVID
Codec ID/Hint                    : XviD
Duration                         : 1h 47mn
Bit rate                         : 1 496 Kbps
Width                            : 720 pixels
Height                           : 304 pixels
Display aspect ratio             : 2.35:1
Frame rate                       : 23.976 fps
Resolution                       : 8 bits
Colorimetry                      : 4:2:0
Scan type                        : Progressive
Bits/(Pixel*Frame)               : 0.285
Stream size                      : 1.12 GiB (77%)
Writing library                  : XviD 1.1.2 (UTC 2006-11-01)

Audio
ID                               : 1
Format                           : AC-3
Format/Info                      : Audio Coding 3
Codec ID                         : 2000
Duration                         : 1h 47mn
Bit rate mode                    : Constant
Bit rate                         : 448 Kbps
Channel(s)                       : 6 channels
Channel positions                : Front: L C R, Surround: L R, LFE
Sampling rate                    : 48.0 KHz
Stream size                      : 343 MiB (23%)
Alignment                        : Split accross interleaves
Interleave, duration             : 42 ms (1.00 video frame)
Interleave, preload duration     : 500 ms

Blackbeard  TBS

Enjoy...